<svg xmlns="http://www.w3.org/2000/svg" width="67.765" height="45.177" viewBox="0 0 67.765 45.177">
  <path id="Icon_metro-visa" data-name="Icon metro-visa" d="M60.659,35.642H56.6q.412-1.088,1.941-5.265l.088-.265q.118-.294.294-.765t.265-.765l.353,1.618ZM18.188,33.73l-1.706-8.676a1.95,1.95,0,0,0-2.206-1.588H6.394l-.059.382q9.147,2.324,11.853,9.882Zm5.265-10.265L18.688,36.348l-.5-2.618a10.694,10.694,0,0,0-2.5-3.809,11.406,11.406,0,0,0-3.853-2.6l3.971,15h5.147L28.63,23.466H23.453Zm4.088,18.882h4.882l3.059-18.882H30.6ZM50.13,23.936a11.92,11.92,0,0,0-4.382-.794,9.533,9.533,0,0,0-5.912,1.735,5.472,5.472,0,0,0-2.324,4.5q-.029,3,4.265,5.118A8.135,8.135,0,0,1,43.748,35.7a1.567,1.567,0,0,1,.559,1.147,1.472,1.472,0,0,1-.882,1.353,4.247,4.247,0,0,1-2.029.471,10.627,10.627,0,0,1-4.588-.971l-.647-.324-.676,4.235a13.032,13.032,0,0,0,5.441,1,9.711,9.711,0,0,0,6.132-1.735,5.783,5.783,0,0,0,2.368-4.706q0-3.118-4.118-5.118a14.213,14.213,0,0,1-2.088-1.235,1.416,1.416,0,0,1-.647-1.118,1.373,1.373,0,0,1,.721-1.132,3.7,3.7,0,0,1,2.074-.485,8.3,8.3,0,0,1,3.647.706l.441.235Zm12.5-.471H58.865a2.5,2.5,0,0,0-2.559,1.588L49.071,42.348h5.118l1.029-2.824h6.235q.147.647.588,2.824h4.529Zm7.706-9.412V51.7a3.817,3.817,0,0,1-3.765,3.765H6.335a3.618,3.618,0,0,1-2.647-1.118A3.618,3.618,0,0,1,2.571,51.7V14.054a3.618,3.618,0,0,1,1.118-2.647,3.618,3.618,0,0,1,2.647-1.118H66.571a3.817,3.817,0,0,1,3.765,3.765Z" transform="translate(-2.571-10.289)" fill="#fff"/>
</svg>
